<svg width="127" height="28" viewBox="0 0 127 28" fill="none" xmlns="http://www.w3.org/2000/svg">
<g clip-path="url(#clip0_248_83)">
<path d="M4.52929 0.10083V0.391424H6.87485C8.53628 0.391424 8.82948 0.714307 8.82948 2.36101V19.2478C8.82948 25.6732 7.36351 27.0293 5.66949 27.3199C4.20352 27.5782 2.18374 26.4158 1.43446 26.1575C0.652612 25.8992 0.0662233 26.0284 0.0010691 26.7387C-0.0315082 27.3845 0.685189 27.7073 1.49962 27.8365C2.57466 28.0302 4.82249 27.8688 5.76723 27.6105C7.26577 27.223 10.947 25.77 10.947 19.0218V2.36101C10.947 0.714307 11.2402 0.391424 12.9016 0.391424H13.5532V0.10083H4.52929ZM17.8256 19.7321C16.9134 19.7321 16.1642 20.4425 16.1642 21.3142C16.1642 22.186 16.9134 22.8964 17.8256 22.8964C18.7378 22.8964 19.487 22.186 19.487 21.3142C19.487 20.4425 18.7378 19.7321 17.8256 19.7321ZM31.921 0.10083H22.0828V0.391424H22.7017C24.3632 0.391424 24.6564 0.714307 24.6564 2.36101V20.4747C24.6564 22.0892 24.3632 22.4443 22.7017 22.4443H22.0828V22.7026H26.7738H31.921C40.0327 22.7026 44.561 17.6334 44.561 11.4017C44.561 5.17009 40.0327 0.10083 31.921 0.10083ZM31.3346 22.3152H26.7738V0.488292H31.3346C39.088 0.488292 42.248 5.46069 42.248 11.4017C42.248 17.3428 39.088 22.3152 31.3346 22.3152ZM48.8438 19.7321C47.9317 19.7321 47.1824 20.4425 47.1824 21.3142C47.1824 22.186 47.9317 22.8964 48.8438 22.8964C49.756 22.8964 50.5053 22.186 50.5053 21.3142C50.5053 20.4425 49.756 19.7321 48.8438 19.7321ZM78.3949 0.10083V0.391424H79.0464C80.7079 0.391424 81.6526 0.714307 81.0011 2.32872L74.1273 19.8935L68.9475 7.85002L71.0976 2.32872C71.7166 0.811172 72.5636 0.391424 74.225 0.391424H74.8766V0.10083H69.2733V0.391424H69.3059C70.9673 0.391424 71.4885 0.391424 70.8696 2.03813L68.752 7.39798L66.602 2.32872C65.983 0.811172 65.8201 0.391424 67.4815 0.391424H68.1331V0.10083H61.0964V0.391424H61.4548C63.1162 0.391424 63.5397 0.875748 64.3216 2.32872L67.677 10.1748L63.8655 19.8935L56.3402 2.32872C55.7212 0.811172 55.5583 0.391424 57.2197 0.391424H57.8713V0.10083H50.8346V0.391424H51.2255C52.8544 0.391424 53.2779 0.875748 54.0598 2.32872L62.7579 22.7026H63.1488L67.8725 10.6268L73.0197 22.7026H73.4106L81.3594 2.32872C81.9784 0.811172 82.8254 0.391424 84.4868 0.391424H85.1384V0.10083H78.3949ZM90.4026 6.84908C85.3532 6.84908 81.9 10.2071 81.9 14.8889C81.9 19.5707 85.3532 22.8964 90.4026 22.8964C95.4195 22.8964 98.9053 19.5707 98.9053 14.8889C98.9053 10.2071 95.4195 6.84908 90.4026 6.84908ZM90.4026 22.6058C86.3631 22.6058 83.9849 19.5061 83.9849 14.8889C83.9849 10.2716 86.3631 7.17196 90.4026 7.17196C94.4422 7.17196 96.8203 10.2716 96.8203 14.8889C96.8203 19.5061 94.4422 22.6058 90.4026 22.6058ZM110.032 6.84908C104.982 6.84908 101.529 10.2071 101.529 14.8889C101.529 19.5707 104.982 22.8964 110.032 22.8964C115.049 22.8964 118.534 19.5707 118.534 14.8889C118.534 10.2071 115.049 6.84908 110.032 6.84908ZM110.032 22.6058C105.992 22.6058 103.614 19.5061 103.614 14.8889C103.614 10.2716 105.992 7.17196 110.032 7.17196C114.071 7.17196 116.449 10.2716 116.449 14.8889C116.449 19.5061 114.071 22.6058 110.032 22.6058ZM126.174 22.4443C124.512 22.4443 124.219 22.0892 124.219 20.4747V0.10083H119.528V0.391424H120.179C121.808 0.391424 122.134 0.714307 122.134 2.32872V20.4747C122.134 22.0892 121.808 22.4443 120.179 22.4443H119.528V22.7026H126.825V22.4443H126.174Z" fill="black"/>
</g>
<defs>
<clipPath id="clip0_248_83">
<rect width="127" height="28" fill="white"/>
</clipPath>
</defs>
</svg>
