<svg width="53" height="17" viewBox="0 0 53 17" fill="none" xmlns="http://www.w3.org/2000/svg">
<g clip-path="url(#clip0_248_224)">
<path d="M34.685 1.31958H-0.09375V17.097H34.685V1.31958Z" fill="#F2F2F2"/>
<path d="M22.9328 7.24453C22.7329 6.13203 21.7502 5.21765 20.0179 5.21765C19.2184 5.21765 18.6354 5.37005 18.1191 5.69008L17.2196 6.78734C16.8532 5.8882 15.9371 5.21765 14.4546 5.21765C13.6385 5.21765 13.0721 5.37005 12.5391 5.69008L11.8729 6.6959V5.43101H9.25781V13.5538H11.8729V9.33236C11.8729 7.67124 12.3559 6.86354 13.3553 6.86354C14.2048 6.86354 14.6545 7.32073 14.7711 8.12843C14.8211 8.5399 14.8377 8.98185 14.8377 9.36284V13.5538H17.4361V9.33236C17.4361 7.67124 17.9358 6.86354 18.9352 6.86354C19.7681 6.86354 20.2344 7.32073 20.3344 8.12843C20.3843 8.5399 20.401 8.98185 20.401 9.36284V13.5538H23.0161V8.75326C23.0161 8.09795 22.9994 7.656 22.9328 7.24453Z" fill="#C5C5C5"/>
<path d="M28.1857 10.445L30.7674 13.5539H34.0154L30.1178 9.1801L33.9655 5.43114H30.8674L27.5028 8.99722V2.35272H24.8877V13.5539H27.5028V11.1308L28.1857 10.445ZM42.9272 9.34773C42.9272 7.1837 41.4614 5.21778 38.6298 5.21778C35.8148 5.21778 34.0326 7.07702 34.0326 9.51537C34.0326 12.3804 35.9814 13.7672 38.4632 13.7672C40.6286 13.7672 42.2942 12.7767 42.7772 10.9022H40.1955C40.0456 11.6642 39.4293 12.1214 38.5132 12.1214C37.5304 12.1214 36.7976 11.6642 36.6477 10.1097H42.8772C42.9105 9.82016 42.9272 9.56109 42.9272 9.34773ZM38.5132 6.86367C39.4793 6.86367 40.0622 7.45801 40.2121 8.60099H36.7143C36.9308 7.39705 37.5804 6.86367 38.5132 6.86367ZM52.812 5.43114H49.9638L47.9483 11.7099L45.9162 5.43114H43.0013L46.6491 13.9196L46.5325 14.1787C46.1994 14.8797 45.6997 15.1236 44.9502 15.1236C44.6836 15.1236 44.4505 15.1236 44.2173 15.0931V16.6933C44.5837 16.739 44.9002 16.7542 45.3499 16.7542C47.2821 16.7542 48.2481 16.0837 49.2642 13.7215L52.812 5.43114Z" fill="#C5C5C5"/>
<path d="M40.544 2.02631C40.4607 1.56277 40.0859 1.20717 39.4266 1.20717C39.1004 1.20717 38.8367 1.26432 38.6493 1.40402L38.3231 1.83581C38.1843 1.46752 37.8234 1.20717 37.2612 1.20717C36.9351 1.20717 36.6713 1.26432 36.4839 1.40402L36.248 1.78501V1.29607H35.6511V4.6615H36.248V2.99784C36.248 1.97551 36.5881 1.63896 37.053 1.63896C37.4695 1.63896 37.7332 1.82311 37.7887 2.2041C37.8095 2.37555 37.8165 2.55969 37.8165 2.85814V4.6615H38.4133V2.99784C38.4133 1.97551 38.7534 1.63896 39.2184 1.63896C39.6348 1.63896 39.8985 1.82311 39.954 2.2041C39.9749 2.37555 39.9818 2.55969 39.9818 2.85814V4.6615H40.5787V2.60414C40.5787 2.3311 40.5717 2.19775 40.544 2.02631ZM44.3296 2.88354C44.3296 1.89931 43.7675 1.20717 42.7542 1.20717C41.7479 1.20717 41.0053 1.89931 41.0053 2.99149C41.0053 4.17891 41.7201 4.7504 42.6779 4.7504C43.4343 4.7504 44.1353 4.38846 44.2811 3.57567H43.6564C43.5732 4.05826 43.1845 4.33131 42.7056 4.33131C42.1643 4.33131 41.7062 4.03286 41.6507 3.14388H44.3158C44.3296 3.02323 44.3296 2.93434 44.3296 2.88354ZM42.7403 1.62626C43.3441 1.62626 43.6703 2.02631 43.7258 2.72479H41.6577C41.7271 2.00726 42.1574 1.62626 42.7403 1.62626ZM48.0553 -0.00567627H47.4585V1.75961L47.2156 1.42942C47.0282 1.28972 46.6395 1.20717 46.3342 1.20717C45.3834 1.20717 44.5367 1.78501 44.5367 3.02958C44.5367 4.01381 45.1335 4.7504 46.2093 4.7504C46.584 4.7504 46.9727 4.64245 47.1809 4.4837L47.4585 4.12176V4.6615H48.0553V-0.00567627ZM46.2995 4.33131C45.5638 4.33131 45.189 3.72807 45.189 2.96609C45.189 2.08345 45.6887 1.62626 46.3342 1.62626C46.8616 1.62626 47.4585 1.95646 47.4585 2.82639V3.01053C47.4585 3.97571 46.9102 4.33131 46.2995 4.33131ZM49.1327 0.19117C48.9175 0.19117 48.751 0.343567 48.751 0.540412C48.751 0.737258 48.9175 0.88968 49.1327 0.88968C49.3478 0.88968 49.5144 0.737258 49.5144 0.540412C49.5144 0.343567 49.3478 0.19117 49.1327 0.19117ZM49.4311 4.6615V1.29607H48.8342V4.6615H49.4311ZM52.3202 4.6615H52.917C52.8615 4.28686 52.8476 4.05826 52.8476 3.80427V2.54065C52.8476 2.3946 52.8407 2.2295 52.8268 2.09615C52.7643 1.54372 52.3965 1.20717 51.522 1.20717C50.71 1.20717 50.1618 1.61991 50.1062 2.33745H50.7309C50.7725 1.87391 51.0223 1.62626 51.522 1.62626C52.0148 1.62626 52.2091 1.82946 52.2369 2.1406C52.2508 2.2676 52.2508 2.40095 52.2508 2.54699V2.63589H52.0148C50.5712 2.63589 49.9466 3.02958 49.9466 3.79157C49.9466 4.41386 50.4671 4.7504 51.1334 4.7504C51.4873 4.7504 51.8066 4.6996 52.0564 4.54085L52.2577 4.17891L52.3202 4.6615ZM51.3347 4.33131C50.8835 4.33131 50.599 4.15351 50.599 3.74712C50.599 3.16928 51.2375 2.97244 52.2508 3.04228V3.38518C52.2508 3.99476 51.8899 4.33131 51.3347 4.33131Z" fill="#C5C5C5"/>
</g>
<defs>
<clipPath id="clip0_248_224">
<rect width="53" height="17" fill="white"/>
</clipPath>
</defs>
</svg>
