<svg width="108" height="90" viewBox="0 0 108 90" fill="none" xmlns="http://www.w3.org/2000/svg">
<g clip-path="url(#clip0_248_213)">
<path d="M55.628 11.1446C55.5666 16.0005 59.9398 18.7105 63.2343 20.3216C66.6192 21.9748 67.7561 23.0348 67.7432 24.513C67.7173 26.7756 65.043 27.774 62.5399 27.8129C58.1731 27.881 55.6344 26.6297 53.6158 25.6832L52.0428 33.0708C54.0679 34.0076 57.8178 34.8245 61.7066 34.8602C70.8342 34.8602 76.8062 30.3381 76.8385 23.3265C76.874 14.4284 64.5747 13.9356 64.6587 9.95819C64.6877 8.75231 65.8343 7.46539 68.3472 7.13799C69.5907 6.97267 73.024 6.84625 76.916 8.64534L78.4437 1.4976C76.3508 0.732586 73.6603 -1.52588e-05 70.3109 -1.52588e-05C61.7195 -1.52588e-05 55.6764 4.58361 55.628 11.1446ZM93.1235 0.615887C91.4569 0.615887 90.0519 1.59161 89.4253 3.08923L76.3863 34.335H85.5075L87.3226 29.3008H98.4689L99.5218 34.335H107.561L100.546 0.615887H93.1235ZM94.3993 9.72479L97.0316 22.3865H89.8225L94.3993 9.72479ZM44.5689 0.615887L37.3792 34.335H46.0708L53.2572 0.615887H44.5689ZM31.7108 0.615887L22.664 23.5664L19.0045 4.05199C18.575 1.87363 16.8793 0.615887 14.9963 0.615887H0.206711L0 1.59485C3.03607 2.25614 6.48557 3.32263 8.57529 4.46367C9.85432 5.16061 10.2193 5.77003 10.6392 7.42649L17.5705 34.335H26.7562L40.8384 0.615887H31.7108Z" fill="url(#paint0_linear_248_213)"/>
</g>
<path d="M8.20785 89.9225V87.5995C8.20785 86.7091 7.66582 86.1283 6.73662 86.1283C6.27201 86.1283 5.76869 86.2832 5.42024 86.7865C5.14922 86.3606 4.76206 86.1283 4.1813 86.1283C3.79414 86.1283 3.40697 86.2445 3.09723 86.6703V86.2057H2.28418V89.9225H3.09723V87.8706C3.09723 87.2124 3.44568 86.9026 3.98772 86.9026C4.52976 86.9026 4.80077 87.2511 4.80077 87.8706V89.9225H5.61383V87.8706C5.61383 87.2124 6.001 86.9026 6.50431 86.9026C7.04635 86.9026 7.31737 87.2511 7.31737 87.8706V89.9225H8.20785ZM20.2488 86.2057H18.9324V85.0829H18.1194V86.2057H17.3837V86.9414H18.1194V88.6449C18.1194 89.4967 18.4678 90 19.397 90C19.7455 90 20.1326 89.8838 20.4037 89.729L20.1714 89.0321C19.9391 89.1869 19.668 89.2256 19.4744 89.2256C19.0873 89.2256 18.9324 88.9933 18.9324 88.6062V86.9414H20.2488V86.2057ZM27.1404 86.1283C26.6758 86.1283 26.366 86.3606 26.1725 86.6703V86.2057H25.3594V89.9225H26.1725V87.8318C26.1725 87.2124 26.4435 86.8639 26.9468 86.8639C27.1017 86.8639 27.2952 86.9026 27.4501 86.9414L27.6824 86.167C27.5275 86.1283 27.2952 86.1283 27.1404 86.1283ZM16.7256 86.5155C16.3384 86.2445 15.7964 86.1283 15.2156 86.1283C14.2864 86.1283 13.6669 86.5929 13.6669 87.3285C13.6669 87.948 14.1315 88.2964 14.9446 88.4126L15.3317 88.4513C15.7576 88.5287 15.9899 88.6449 15.9899 88.8385C15.9899 89.1095 15.6802 89.3031 15.1382 89.3031C14.5961 89.3031 14.1702 89.1095 13.8992 88.9159L13.5121 89.5354C13.9379 89.8451 14.5187 90 15.0994 90C16.1835 90 16.803 89.4967 16.803 88.7998C16.803 88.1416 16.2997 87.7931 15.5253 87.677L15.1382 87.6383C14.7897 87.5995 14.5187 87.5221 14.5187 87.2898C14.5187 87.0188 14.7897 86.8639 15.2156 86.8639C15.6802 86.8639 16.1448 87.0575 16.3771 87.1737L16.7256 86.5155ZM38.3295 86.1283C37.8649 86.1283 37.5552 86.3606 37.3616 86.6703V86.2057H36.5486V89.9225H37.3616V87.8318C37.3616 87.2124 37.6326 86.8639 38.136 86.8639C38.2908 86.8639 38.4844 86.9026 38.6393 86.9414L38.8716 86.167C38.7167 86.1283 38.4844 86.1283 38.3295 86.1283ZM27.9534 88.0641C27.9534 89.1869 28.7278 90 29.928 90C30.47 90 30.8572 89.8838 31.2444 89.5741L30.8572 88.9159C30.5475 89.1482 30.2377 89.2644 29.8893 89.2644C29.2311 89.2644 28.7665 88.7998 28.7665 88.0641C28.7665 87.3672 29.2311 86.9026 29.8893 86.8639C30.2377 86.8639 30.5475 86.9801 30.8572 87.2124L31.2444 86.5542C30.8572 86.2445 30.47 86.1283 29.928 86.1283C28.7278 86.1283 27.9534 86.9414 27.9534 88.0641ZM35.4645 88.0641V86.2057H34.6514V86.6703C34.3804 86.3219 33.9933 86.1283 33.4899 86.1283C32.4446 86.1283 31.6315 86.9414 31.6315 88.0641C31.6315 89.1869 32.4446 90 33.4899 90C34.032 90 34.4191 89.8064 34.6514 89.4579V89.9225H35.4645V88.0641ZM32.4833 88.0641C32.4833 87.406 32.9092 86.8639 33.6061 86.8639C34.2643 86.8639 34.7289 87.3672 34.7289 88.0641C34.7289 88.7223 34.2643 89.2644 33.6061 89.2644C32.9092 89.2256 32.4833 88.7223 32.4833 88.0641ZM22.7654 86.1283C21.6813 86.1283 20.907 86.9026 20.907 88.0641C20.907 89.2256 21.6813 90 22.8041 90C23.3461 90 23.8882 89.8451 24.3141 89.4967L23.9269 88.9159C23.6171 89.1482 23.23 89.3031 22.8428 89.3031C22.3395 89.3031 21.8362 89.0708 21.72 88.4126H24.4689V88.1029C24.5076 86.9026 23.8107 86.1283 22.7654 86.1283ZM22.7654 86.8252C23.2687 86.8252 23.6171 87.1349 23.6946 87.7157H21.7587C21.8362 87.2124 22.1846 86.8252 22.7654 86.8252ZM42.9368 88.0641V84.7345H42.1238V86.6703C41.8528 86.3219 41.4656 86.1283 40.9623 86.1283C39.9169 86.1283 39.1039 86.9414 39.1039 88.0641C39.1039 89.1869 39.9169 90 40.9623 90C41.5043 90 41.8915 89.8064 42.1238 89.4579V89.9225H42.9368V88.0641ZM39.9557 88.0641C39.9557 87.406 40.3815 86.8639 41.0784 86.8639C41.7366 86.8639 42.2012 87.3672 42.2012 88.0641C42.2012 88.7223 41.7366 89.2644 41.0784 89.2644C40.3815 89.2256 39.9557 88.7223 39.9557 88.0641ZM12.7764 88.0641V86.2057H11.9634V86.6703C11.6924 86.3219 11.3052 86.1283 10.8019 86.1283C9.75653 86.1283 8.94347 86.9414 8.94347 88.0641C8.94347 89.1869 9.75653 90 10.8019 90C11.3439 90 11.7311 89.8064 11.9634 89.4579V89.9225H12.7764V88.0641ZM9.75653 88.0641C9.75653 87.406 10.1824 86.8639 10.8793 86.8639C11.5375 86.8639 12.0021 87.3672 12.0021 88.0641C12.0021 88.7223 11.5375 89.2644 10.8793 89.2644C10.1824 89.2256 9.75653 88.7223 9.75653 88.0641Z" fill="black"/>
<path d="M28.6504 57.9811H16.4546V79.8949H28.6504V57.9811Z" fill="#FF5F00"/>
<path d="M17.229 68.9381C17.229 64.4856 19.3197 60.5365 22.5332 57.9812C20.1715 56.1228 17.1903 55 13.9381 55C6.23341 55 0 61.2334 0 68.9381C0 76.6427 6.23341 82.8761 13.9381 82.8761C17.1903 82.8761 20.1715 81.7533 22.5332 79.8949C19.3197 77.3783 17.229 73.3905 17.229 68.9381Z" fill="#EB001B"/>
<path d="M45.1052 68.9381C45.1052 76.6427 38.8718 82.8761 31.1672 82.8761C27.9149 82.8761 24.9337 81.7533 22.572 79.8949C25.8242 77.3396 27.8762 73.3905 27.8762 68.9381C27.8762 64.4856 25.7855 60.5365 22.572 57.9812C24.9337 56.1228 27.9149 55 31.1672 55C38.8718 55 45.1052 61.2721 45.1052 68.9381Z" fill="#F79E1B"/>
<defs>
<linearGradient id="paint0_linear_248_213" x1="49.4503" y1="35.5595" x2="50.463" y2="-0.242231" gradientUnits="userSpaceOnUse">
<stop stop-color="#222357"/>
<stop offset="1" stop-color="#254AA5"/>
</linearGradient>
<clipPath id="clip0_248_213">
<rect width="107.561" height="35" fill="white"/>
</clipPath>
</defs>
</svg>
